<svg width="24" height="24" viewBox="0 0 24 24" fill="none" xmlns="http://www.w3.org/2000/svg">
<path d="M11.975 20.15C9.72501 20.15 7.80418 19.3542 6.21251 17.7625C4.62085 16.1708 3.82501 14.25 3.82501 12C3.82501 9.75001 4.62085 7.82917 6.21251 6.23751C7.80418 4.64584 9.72501 3.85001 11.975 3.85001C13.425 3.85001 14.6917 4.14167 15.775 4.72501C16.8583 5.30834 17.8 6.10834 18.6 7.12501V3.85001H20.175V10.425H13.6V8.85001H17.775C17.1417 7.86667 16.3417 7.07084 15.375 6.46251C14.4083 5.85417 13.275 5.55001 11.975 5.55001C10.175 5.55001 8.65001 6.17501 7.40001 7.42501C6.15001 8.67501 5.52501 10.2 5.52501 12C5.52501 13.8 6.15001 15.325 7.40001 16.575C8.65001 17.825 10.175 18.45 11.975 18.45C13.3417 18.45 14.5958 18.0583 15.7375 17.275C16.8792 16.4917 17.675 15.4583 18.125 14.175H19.9C19.4 15.9583 18.4208 17.4 16.9625 18.5C15.5042 19.6 13.8417 20.15 11.975 20.15Z" fill="#2043B5"/>
</svg>
