<svg xmlns="http://www.w3.org/2000/svg" xml:space="preserve" viewBox="0 0 52 52">
  <linearGradient id="a" x1="35.5510635" x2="35.5510635" y1="1.8009695" y2="26.2655716" gradientTransform="matrix(1 0 0 -1 0 52.2755737)" gradientUnits="userSpaceOnUse">
    <stop offset="0" stop-color="#4366c2"/>
    <stop offset=".15" stop-color="#3458b8"/>
    <stop offset=".4" stop-color="#2348ac"/>
    <stop offset=".67" stop-color="#193fa5"/>
    <stop offset="1" stop-color="#163ca3"/>
  </linearGradient>
  <path fill="url(#a)" d="M22.3600006 41.3199997c1.4300003 5.2799988 6.5400009 9.3100014 9.1199989 9.1500015.0900002 0 9.7900009-1.8199997 15.1000023-10.7099991 4.1300011-6.9199982 2.7299995-13.6000004-2.8899994-13.75-2 .1499996-24 5.25-21.3299999 15.3100014"/>
  <linearGradient id="b" x1="28.7327461" x2="28.7327461" y1="27.9104118" y2="50.7653122" gradientTransform="matrix(1 0 0 -1 0 52.2755737)" gradientUnits="userSpaceOnUse">
    <stop offset="0" stop-color="#4366c2"/>
    <stop offset=".15" stop-color="#3458b8"/>
    <stop offset=".4" stop-color="#2348ac"/>
    <stop offset=".67" stop-color="#193fa5"/>
    <stop offset="1" stop-color="#163ca3"/>
  </linearGradient>
  <path fill="url(#b)" d="M43.1599998 7.4000001c-7.2190819-6.1564579-17.3325253-7.6190176-26-3.76a14.29995508 14.29995508 0 0 0-1.5699997.7700002c-.3400002.1799998-.6899996.3699999-1 .5699997h.0900002c-1.0086422.690443-1.8971195 1.541759-2.6300001 2.52C5 16.8299999 28.7000008 23.6499996 41.3899994 23.6700001c5.8400001 4.2000007 7.4799995-11.8199997 1.7700004-16.27z"/>
  <linearGradient id="c" x1="2.6900001" x2="19.2785931" y1="42.7878304" y2="42.7878304" gradientTransform="matrix(1 0 0 -1 0 52.2755737)" gradientUnits="userSpaceOnUse">
    <stop offset="0" stop-color="#58c66b"/>
    <stop offset="1" stop-color="#5491f6"/>
  </linearGradient>
  <path fill="url(#c)" d="M18.6000004 7.5900002C15.3400002 12.5 4.48 15.96 2.6900001 15.4200001l.22-.4499998C3.517386 13.7618542 4.2160811 12.601819 5 11.5c1.5916395-2.1396208 3.496316-4.027441 5.6499996-5.5999999.6651249-.5024304 1.3560686-.9697347 2.0700007-1.4000001 1.09513-.6261082 2.328886-.9697728 3.5899992-1 4.8400002.0899999 2.3099995 4 2.289999 4"/>
  <linearGradient id="d" x1="0" x2="16.0200005" y1="18.0703316" y2="18.0703316" gradientTransform="matrix(1 0 0 -1 0 52.2755737)" gradientUnits="userSpaceOnUse">
    <stop offset="0" stop-color="#58c66b"/>
    <stop offset="1" stop-color="#5491f6"/>
  </linearGradient>
  <path fill="url(#d)" d="M15.9200001 42.2900009c.2399998 1.5400009 0 7.6300011-.3199997 8.1500015-.2700005 0-.8299999.0499992-2.4700003-.8699989-.8592348-.4884186-1.687479-1.0294495-2.4800005-1.6199989-1.0648003-.7889442-2.0677233-1.6581421-3-2.5999985-.9444213-.9298744-1.8137999-1.9330025-2.5999999-3-1.6014931-2.1725044-2.8470683-4.5860176-3.6900001-7.1500015-.4417332-1.3038673-.7761792-2.6416512-1-4-.4533494-2.7984257-.4533491-5.6515751 0-8.4500008a25.80997911 25.80997911 0 0 1 1-4c.0799999-.2600002.1700001-.5200005.27-.7800007 1.8699999 2.5 4 4.7600002 5.8899999 7.2800007s4.1700001 6.3199997 4.6599998 7.1599998c3 5.1899986 3.54 8.4000015 3.7699995 9.9399986"/>
  <linearGradient id="e" x1="14.0314798" x2="52.0000343" y1="30.6580791" y2="30.6580791" gradientTransform="matrix(1 0 0 -1 0 52.2755737)" gradientUnits="userSpaceOnUse">
    <stop offset="0" stop-color="#58c66b"/>
    <stop offset="1" stop-color="#5491f6"/>
  </linearGradient>
  <path fill="url(#e)" d="M52 26.9300003c.0034409 3.2754002-.6106186 6.5220947-1.8100014 9.5699997-3.0600014 3.2900009-23.7099991-4.8199997-23.9099998-4.9099998-2.8299999-1.2399998-11.4200001-5-12.1999998-10.9399986C13 12.1199999 30.2299995 6.1799998 37.8199997 5.9499998c.9099998 0 3.6800003 0 5.2900009 1.3600001C48.770462 12.2572088 52.0125046 19.4123192 52 26.9300003"/>
  <linearGradient id="f" x1="33.8300018" x2="48.685791" y1="7.350224" y2="7.350224" gradientTransform="matrix(1 0 0 -1 0 52.2755737)" gradientUnits="userSpaceOnUse">
    <stop offset="0" stop-color="#58c66b"/>
    <stop offset="1" stop-color="#5491f6"/>
  </linearGradient>
  <path fill="url(#f)" d="M38 50.0299988c-2.25 1.0600014-4.7299995.2900009-4.0800018-1.9099998 1.2299995-4.2099991 12-8.5400009 14.4099998-8.7700005.2900009 0 .4199982.1699982.2900009.4000015C46.1336784 44.1200142 42.4485741 47.6871414 38 50.0299988"/>
</svg>