<svg width="362" height="89" viewBox="0 0 362 89" fill="none" xmlns="http://www.w3.org/2000/svg">
<path d="M26.1604 14.5445L0.164574 14.5178C0.121517 14.5178 0.0802221 14.5005 0.0497757 14.4697C0.0193294 14.4388 0.00222613 14.397 0.00222613 14.3534L0 3.24228C0.000188335 3.20842 0.0124608 3.1758 0.0345423 3.15047C0.0566239 3.12513 0.0870196 3.1088 0.120096 3.1045C8.22123 2.08524 16.2757 1.07932 24.2834 0.0867241C24.7623 0.0274649 25.5221 -0.00142729 26.563 5.41948e-05C39.6102 0.0207949 52.6567 0.0311686 65.7024 0.0311686C65.735 0.0312606 65.7668 0.0415649 65.7935 0.0606621C65.8202 0.0797593 65.8404 0.106717 65.8514 0.137838L69.6499 11.2378C69.687 11.3489 69.7063 11.4689 69.7077 11.5978L69.7255 14.3778C69.7255 14.415 69.711 14.4506 69.6852 14.4768C69.6593 14.5031 69.6242 14.5178 69.5877 14.5178L43.5362 14.5445C43.5061 14.5445 43.4773 14.5564 43.456 14.5777C43.4347 14.599 43.4228 14.6278 43.4228 14.6578C43.4094 16.3556 43.4043 18.0541 43.4072 19.7534C43.4072 19.7652 43.4265 20.4319 43.465 21.7534C43.4784 22.223 43.4747 22.6926 43.4539 23.1623C43.4243 23.8215 43.4094 24.2904 43.4094 24.5689C43.4094 45.686 43.4094 66.8038 43.4094 87.9223C43.4095 87.952 43.3978 87.9805 43.377 88.0016C43.3562 88.0228 43.3279 88.035 43.2982 88.0356L37.6272 88.0823C37.453 88.0838 37.2795 88.0226 37.1357 87.909L26.4451 79.4734C26.3952 79.434 26.3549 79.3836 26.3272 79.3259C26.2994 79.2681 26.285 79.2046 26.285 79.1401L26.2716 14.6556C26.2716 14.6261 26.2599 14.5979 26.239 14.577C26.2182 14.5562 26.1899 14.5445 26.1604 14.5445Z" fill="#FFEACE"/>
<path d="M277.061 21.2979C277.01 21.2466 276.981 21.1755 276.981 21.1001V18.8756C276.981 18.8012 276.998 18.7276 277.032 18.6608C277.066 18.594 277.116 18.5359 277.176 18.4912L289.802 9.22009C289.849 9.18544 289.907 9.16865 289.965 9.17272C290.024 9.17679 290.078 9.20147 290.12 9.24232L294.806 13.9268C294.902 14.0214 294.961 14.1475 294.973 14.2823C295.005 14.6482 295.005 14.9779 294.973 15.2712C294.946 15.5201 294.849 15.8297 294.681 16.2001C293.2 19.4801 291.7 22.7653 290.182 26.0556C290.14 26.1478 290.072 26.2259 289.986 26.2807C289.901 26.3354 289.801 26.3645 289.7 26.3645H282.207C282.17 26.3645 282.135 26.3577 282.102 26.3443C282.069 26.3309 282.04 26.3114 282.016 26.2868L277.061 21.2979Z" fill="#FFEACE"/>
<path d="M99.9624 87.9934C99.9159 88.0406 99.8603 88.0781 99.7988 88.1036C99.7374 88.1292 99.6712 88.1423 99.6043 88.1423H68.0597C68.0083 88.1423 67.9571 88.1319 67.909 88.1117C67.8609 88.0915 67.8169 88.0619 67.7795 88.0245L56.8132 76.9534C56.739 76.8779 56.6975 76.7766 56.6975 76.6712V44.4512C56.6975 44.3785 56.7262 44.3083 56.7776 44.2556L67.9863 32.9423C68.0287 32.9 68.079 32.8665 68.1343 32.8436C68.1896 32.8207 68.2489 32.8089 68.3088 32.809H99.3108C99.3473 32.8089 99.3835 32.8162 99.4171 32.8303C99.4508 32.8444 99.4811 32.8651 99.5065 32.8912L110.844 44.2201C110.882 44.2574 110.911 44.3015 110.931 44.3499C110.952 44.3983 110.962 44.4501 110.962 44.5023V65.2401C110.962 65.2731 110.949 65.3047 110.926 65.3281C110.902 65.3514 110.871 65.3645 110.838 65.3645H71.5291C71.4884 65.3645 71.4494 65.3807 71.4206 65.4094C71.3918 65.4382 71.3756 65.4772 71.3756 65.5178V72.2912C71.3756 72.3909 71.4123 72.4844 71.4779 72.5512L74.9095 76.0623C74.9341 76.0876 74.964 76.1077 74.9972 76.1214C75.0304 76.1352 75.0664 76.1423 75.103 76.1423H92.8302C92.8969 76.1422 92.9629 76.1288 93.024 76.1029C93.0852 76.0769 93.1403 76.0389 93.186 75.9912L96.304 72.7645C96.3539 72.7133 96.3818 72.6439 96.3818 72.5712L96.4085 69.9356C96.4085 69.9056 96.4202 69.8767 96.4411 69.8555C96.4619 69.8342 96.4902 69.8223 96.5197 69.8223L110.702 69.809C110.741 69.809 110.779 69.8246 110.807 69.8526C110.835 69.8805 110.851 69.9184 110.851 69.9578V76.9201C110.851 76.9913 110.823 77.0598 110.773 77.1112L99.9624 87.9934ZM73.3994 46.6378C72.7767 47.2527 72.1451 47.9082 71.5046 48.6045C71.4216 48.6962 71.3757 48.8157 71.3756 48.9401V54.9623C71.3756 55.01 71.3946 55.0558 71.4284 55.0896C71.4451 55.1063 71.465 55.1195 71.4868 55.1286C71.5087 55.1376 71.5321 55.1423 71.5558 55.1423H96.1016C96.15 55.1423 96.1964 55.1231 96.2306 55.0889C96.2648 55.0547 96.284 55.0084 96.284 54.9601V48.8445C96.284 48.8078 96.2769 48.7717 96.2632 48.7381C96.2494 48.7046 96.2293 48.6743 96.2039 48.649L92.6122 44.9445C92.5706 44.9016 92.5206 44.8675 92.4652 44.8442C92.4098 44.8209 92.3502 44.8089 92.2897 44.809H75.51C75.3212 44.8089 75.1386 44.8803 74.9985 45.009C74.693 45.2919 74.4217 45.5601 74.1845 45.8134C73.7886 46.2371 73.5269 46.5119 73.3994 46.6378Z" fill="#FFEACE"/>
<path d="M137.151 41.8067L145.76 32.9023C145.785 32.8769 145.814 32.8568 145.846 32.8431C145.878 32.8293 145.913 32.8222 145.947 32.8223L161.546 32.809C161.578 32.809 161.61 32.8218 161.633 32.8448C161.655 32.8677 161.668 32.8988 161.668 32.9312L161.655 45.1267C161.655 45.1416 161.652 45.1564 161.647 45.1701C161.641 45.1839 161.633 45.1964 161.622 45.2069C161.612 45.2174 161.6 45.2257 161.586 45.2314C161.573 45.2371 161.558 45.2401 161.544 45.2401L149.065 45.2534C149.014 45.2534 148.964 45.2635 148.918 45.283C148.872 45.3025 148.83 45.3309 148.796 45.3667L138.221 56.269C138.14 56.3514 138.094 56.4631 138.094 56.5801V88.0601C138.094 88.0819 138.086 88.1028 138.07 88.1182C138.055 88.1336 138.034 88.1423 138.012 88.1423H123.588C123.546 88.1423 123.505 88.1259 123.476 88.0967C123.446 88.0676 123.43 88.028 123.43 87.9867L123.416 32.8912C123.416 32.8694 123.425 32.8485 123.44 32.833C123.456 32.8176 123.477 32.809 123.499 32.809H136.858C136.891 32.809 136.923 32.8221 136.946 32.8454C136.969 32.8687 136.982 32.9004 136.982 32.9334V41.7378C136.982 41.8993 137.039 41.9223 137.151 41.8067Z" fill="#FFEACE"/>
<path d="M183.187 41.8067L191.758 32.9401C191.799 32.8986 191.846 32.8656 191.899 32.843C191.952 32.8205 192.008 32.8089 192.065 32.809H207.582C207.614 32.809 207.645 32.8218 207.668 32.8448C207.691 32.8677 207.704 32.8988 207.704 32.9312L207.691 45.1267C207.691 45.1568 207.679 45.1856 207.658 45.2069C207.636 45.2281 207.608 45.2401 207.577 45.2401L195.041 45.2667C195.006 45.2667 194.971 45.2738 194.939 45.2876C194.907 45.3013 194.878 45.3215 194.854 45.3467L184.221 56.2979C184.172 56.3491 184.144 56.4185 184.144 56.4912L184.13 88.0178C184.13 88.0509 184.117 88.0825 184.094 88.1059C184.07 88.1292 184.039 88.1423 184.006 88.1423L169.579 88.129C169.549 88.129 169.52 88.1173 169.499 88.0964C169.477 88.0756 169.465 88.0473 169.465 88.0178L169.452 32.8912C169.452 32.8694 169.461 32.8485 169.476 32.833C169.492 32.8176 169.513 32.809 169.534 32.809H182.894C182.927 32.809 182.958 32.8221 182.982 32.8454C183.005 32.8687 183.018 32.9004 183.018 32.9334V41.7378C183.018 41.8993 183.075 41.9223 183.187 41.8067Z" fill="#FFEACE"/>
<path d="M250.645 80.3979L242.67 88.0134C242.583 88.0962 242.468 88.1423 242.349 88.1423H221.535C221.478 88.1423 221.422 88.1311 221.369 88.1093C221.316 88.0876 221.268 88.0558 221.228 88.0156L211.229 77.9978C211.18 77.948 211.152 77.8808 211.152 77.8112V65.3401C211.152 65.3042 211.159 65.2684 211.173 65.2349C211.187 65.2013 211.208 65.1706 211.234 65.1445L221.228 55.1579C221.268 55.1178 221.315 55.0859 221.367 55.0642C221.42 55.0424 221.476 55.0312 221.533 55.0312H249.39C249.423 55.0312 249.455 55.0181 249.478 54.9947C249.502 54.9714 249.515 54.9397 249.515 54.9067V48.1756C249.515 48.139 249.508 48.1028 249.494 48.0693C249.48 48.0357 249.46 48.0054 249.435 47.9801L246.092 44.6645C246.068 44.6399 246.038 44.6203 246.006 44.607C245.973 44.5936 245.938 44.5867 245.903 44.5867H229.759C229.648 44.5868 229.539 44.6084 229.438 44.6504C229.337 44.6924 229.247 44.7539 229.172 44.8312L226.13 47.9845C226.08 48.0373 226.052 48.1081 226.052 48.1823V51.0178C226.052 51.0509 226.039 51.0825 226.016 51.1058C225.992 51.1292 225.961 51.1423 225.928 51.1423H211.721C211.688 51.1423 211.656 51.1292 211.633 51.1058C211.61 51.0825 211.596 51.0509 211.596 51.0178V44.8956C211.596 44.8229 211.625 44.7527 211.676 44.7001L223.374 32.9023C223.399 32.877 223.429 32.8568 223.461 32.8431C223.494 32.8293 223.528 32.8223 223.564 32.8223L251.935 32.809C251.987 32.8089 252.04 32.8195 252.088 32.8401C252.137 32.8607 252.182 32.8909 252.219 32.929L263.817 44.629C263.866 44.6775 263.904 44.7353 263.931 44.799C263.957 44.8626 263.971 44.931 263.971 45.0001V88.0178C263.971 88.0509 263.957 88.0825 263.934 88.1059C263.911 88.1292 263.879 88.1423 263.846 88.1423H250.86C250.828 88.1423 250.797 88.1292 250.774 88.1059C250.751 88.0825 250.738 88.0509 250.738 88.0178L250.725 80.4334C250.725 80.3578 250.698 80.346 250.645 80.3979ZM241.982 76.3401C244.472 73.9727 246.951 71.5949 249.421 69.2067C249.473 69.1556 249.502 69.0879 249.504 69.0178L249.515 65.6245C249.515 65.585 249.499 65.5472 249.471 65.5192C249.442 65.4913 249.404 65.4756 249.364 65.4756H228.845C228.714 65.4757 228.59 65.5268 228.498 65.6179L225.685 68.4512C225.66 68.4758 225.641 68.5052 225.628 68.5376C225.614 68.57 225.607 68.6048 225.607 68.6401V73.7979C225.607 73.8633 225.62 73.928 225.645 73.9883C225.671 74.0486 225.708 74.1032 225.754 74.149L228.285 76.6778C228.327 76.7194 228.376 76.7524 228.43 76.7749C228.483 76.7974 228.541 76.809 228.599 76.809H241.342C241.414 76.809 241.483 76.7838 241.538 76.7378C241.69 76.6104 241.839 76.4779 241.982 76.3401Z" fill="#FFEACE"/>
<path d="M293.269 32.809H278.707C278.675 32.809 278.649 32.8348 278.649 32.8667V88.0845C278.649 88.1164 278.675 88.1423 278.707 88.1423H293.269C293.301 88.1423 293.327 88.1164 293.327 88.0845V32.8667C293.327 32.8348 293.301 32.809 293.269 32.809Z" fill="#FFEACE"/>
<path d="M322.198 41.7934L330.983 33.0423C331.132 32.8929 331.335 32.809 331.546 32.809H349.061C349.098 32.8089 349.134 32.8162 349.168 32.8303C349.201 32.8444 349.232 32.8651 349.257 32.8912L361.395 45.0201C361.426 45.0504 361.45 45.0862 361.466 45.1255C361.483 45.1647 361.491 45.2067 361.491 45.249V88.0178C361.491 88.0509 361.478 88.0825 361.455 88.1059C361.431 88.1292 361.4 88.1423 361.367 88.1423H346.938C346.921 88.1423 346.905 88.1391 346.89 88.1328C346.875 88.1266 346.861 88.1174 346.849 88.1059C346.838 88.0943 346.829 88.0806 346.822 88.0655C346.816 88.0504 346.813 88.0342 346.813 88.0178L346.8 49.2645C346.8 49.1946 346.772 49.1277 346.724 49.0779L343.135 45.3778C343.096 45.3385 343.05 45.3072 342.999 45.2858C342.948 45.2645 342.894 45.2534 342.839 45.2534L333.874 45.2667C333.801 45.2668 333.733 45.2948 333.683 45.3445L323.219 55.8556C323.194 55.8803 323.175 55.9096 323.161 55.942C323.148 55.9744 323.141 56.0093 323.141 56.0445L323.128 88.0601C323.128 88.0819 323.119 88.1028 323.104 88.1182C323.088 88.1336 323.067 88.1423 323.046 88.1423H308.621C308.579 88.1423 308.539 88.1259 308.509 88.0967C308.48 88.0676 308.463 88.028 308.463 87.9867L308.45 32.8912C308.45 32.8694 308.458 32.8485 308.474 32.833C308.489 32.8176 308.51 32.809 308.532 32.809H321.891C321.924 32.809 321.956 32.8221 321.979 32.8454C322.003 32.8687 322.016 32.9004 322.016 32.9334V41.7179C322.016 41.8912 322.077 41.9164 322.198 41.7934Z" fill="#FFEACE"/>
<path d="M74.1846 45.8134C74.4218 45.5601 74.6931 45.2919 74.9986 45.009C75.1387 44.8803 75.3213 44.8089 75.5101 44.809H92.2898C92.3503 44.8089 92.4099 44.8209 92.4653 44.8442C92.5207 44.8675 92.5707 44.9016 92.6123 44.9445L96.204 48.649C96.2294 48.6743 96.2495 48.7046 96.2633 48.7381C96.277 48.7717 96.2841 48.8078 96.2841 48.8445V54.9601C96.2841 55.0084 96.2649 55.0547 96.2307 55.0889C96.1965 55.1231 96.1501 55.1423 96.1017 55.1423H71.5559C71.5322 55.1423 71.5088 55.1376 71.4869 55.1286C71.4651 55.1195 71.4452 55.1063 71.4285 55.0896C71.3947 55.0558 71.3757 55.01 71.3757 54.9623V48.9401C71.3758 48.8157 71.4217 48.6962 71.5047 48.6045C72.1452 47.9082 72.7768 47.2527 73.3995 46.6378C73.527 46.5119 73.7887 46.2371 74.1846 45.8134Z" fill="#0D1822"/>
<path d="M241.982 76.3401C241.838 76.4778 241.69 76.6104 241.537 76.7378C241.483 76.7838 241.413 76.809 241.342 76.8089H228.598C228.541 76.809 228.483 76.7974 228.429 76.7749C228.376 76.7524 228.326 76.7194 228.285 76.6778L225.754 74.149C225.707 74.1032 225.671 74.0486 225.645 73.9883C225.62 73.928 225.607 73.8633 225.607 73.7978V68.6401C225.607 68.6048 225.614 68.57 225.627 68.5376C225.641 68.5051 225.66 68.4758 225.685 68.4512L228.498 65.6178C228.59 65.5268 228.714 65.4757 228.845 65.4756H249.363C249.404 65.4756 249.442 65.4913 249.47 65.5192C249.499 65.5471 249.515 65.585 249.515 65.6245L249.504 69.0178C249.502 69.0879 249.473 69.1556 249.421 69.2067C246.951 71.5949 244.472 73.9727 241.982 76.3401Z" fill="#0D1822"/>
</svg>
