<svg width="395" height="100" viewBox="0 0 395 100" fill="none" xmlns="http://www.w3.org/2000/svg">
<path d="M83.7506 76.0954L43.346 51.9134L1.05428 75.4853L0.332764 74.2651L43.346 50.3605L84.4166 74.9306L83.7506 76.0954Z" fill="#83D4DD"/>
<path d="M44.0113 0.776489H42.6248V48.863H44.0113V0.776489Z" fill="#83D4DD"/>
<path d="M123.101 36.8829H109.67V27.9534H146.3V36.9384H132.869V72.102H123.157V36.8829H123.101Z" fill="white"/>
<path d="M143.192 55.3522V55.2412C143.192 45.5906 150.075 37.6594 159.898 37.6594C171.22 37.6594 176.382 46.4226 176.382 56.0177C176.382 56.7942 176.326 57.6816 176.271 58.569H152.739C153.682 62.8951 156.735 65.1691 161.008 65.1691C164.227 65.1691 166.558 64.1708 169.222 61.6749L174.717 66.5557C171.553 70.4936 167.002 72.8785 160.897 72.8785C150.685 72.8785 143.192 65.7238 143.192 55.3522ZM167.058 52.5235C166.503 48.2529 163.95 45.3133 159.898 45.3133C155.902 45.3133 153.349 48.1419 152.572 52.5235H167.058Z" fill="white"/>
<path d="M182.265 38.2695H191.867V45.0915C193.809 40.4326 196.973 37.3821 202.689 37.6594V47.6983H202.19C195.807 47.6983 191.922 51.5252 191.922 59.6228V72.102H182.321V38.2695H182.265Z" fill="white"/>
<path d="M207.407 38.2695H217.009V45.0915C218.951 40.4326 222.115 37.3821 227.831 37.6594V47.6983H227.332C220.894 47.6983 217.009 51.5252 217.009 59.6228V72.102H207.407V38.2695Z" fill="white"/>
<path d="M228.941 62.396V62.2851C228.941 54.9085 234.547 51.4698 242.595 51.4698C245.98 51.4698 248.478 52.0244 250.864 52.8563V52.3017C250.864 48.3084 248.422 46.1453 243.594 46.1453C239.93 46.1453 237.322 46.8663 234.269 47.9756L231.883 40.6545C235.601 38.9906 239.264 37.9368 245.037 37.9368C250.254 37.9368 254.083 39.3233 256.47 41.7083C259.023 44.2596 260.133 47.9756 260.133 52.5236V72.102H250.864V68.4415C248.533 71.0482 245.314 72.7121 240.652 72.7121C234.158 72.7121 228.941 69.0516 228.941 62.396ZM250.975 60.1775V58.4581C249.31 57.6816 247.201 57.1825 244.87 57.1825C240.763 57.1825 238.265 58.8464 238.265 61.8414V61.9523C238.265 64.5591 240.43 66.0566 243.483 66.0566C247.923 66.112 250.975 63.6162 250.975 60.1775Z" fill="white"/>
<path d="M268.18 39.4897H273.064V48.031C275.451 42.5956 280.224 38.7132 286.385 38.9351V44.1486H285.996C278.837 44.1486 273.064 49.2512 273.064 59.1236V72.102H268.18V39.4897Z" fill="white"/>
<path d="M292.656 26.9551H298.206V32.335H292.656V26.9551ZM292.934 39.4897H297.818V72.1021H292.934V39.4897Z" fill="white"/>
<path d="M307.364 59.7338V39.4897H312.248V58.5691C312.248 64.6145 315.523 68.386 321.295 68.386C326.845 68.386 331.063 64.2818 331.063 58.1808V39.4897H335.836V72.1021H331.063V66.4448C328.843 69.9945 325.513 72.8231 319.907 72.8231C311.971 72.7676 307.364 67.4986 307.364 59.7338Z" fill="white"/>
<path d="M345.493 39.4898H350.377V44.9806C352.542 41.7638 355.428 38.8242 360.922 38.8242C366.251 38.8242 369.636 41.6528 371.412 45.3134C373.743 41.7083 377.24 38.8242 382.901 38.8242C390.393 38.8242 395 43.8714 395 51.969V72.1021H390.116V53.0228C390.116 46.7 386.952 43.2058 381.68 43.2058C376.74 43.2058 372.633 46.8664 372.633 53.3001V72.1021H367.86V52.9119C367.86 46.8109 364.641 43.2058 359.479 43.2058C354.318 43.2058 350.377 47.4765 350.377 53.4665V72.1021H345.493V39.4898Z" fill="white"/>
<path d="M43.3462 100L0 75.2635V24.1265L43.3462 0L84.7499 24.792V75.929L43.3462 100ZM1.38752 74.4315L43.3462 98.3916L83.4179 75.0971V25.5685L43.3462 1.60843L1.38752 24.9029V74.4315Z" fill="#83D4DD"/>
<path d="M39.4057 62.6178C40.6822 67.2767 45.1778 70.8264 47.5088 70.7155C47.5643 70.7155 56.1669 69.107 60.8845 61.2313C64.5476 55.1303 63.3266 49.1958 58.3315 49.0848C56.4999 49.1958 37.0191 53.6883 39.4057 62.6178Z" fill="url(#paint0_linear_11_1333)"/>
<path d="M57.8319 32.6123C54.0023 29.34 49.0627 27.3988 43.6791 27.3988C40.5156 27.3988 37.5185 28.0644 34.799 29.2845C34.2995 29.5064 33.8555 29.7283 33.4115 29.9501C33.0785 30.1165 32.801 30.2829 32.5235 30.4493H32.579C31.691 31.0594 30.9139 31.7804 30.2479 32.6123C23.9763 40.8763 45.0112 46.9218 56.2779 46.9218C61.4394 50.6933 62.938 36.5502 57.8319 32.6123Z" fill="url(#paint1_linear_11_1333)"/>
<path d="M36.0756 32.7787C33.1896 37.1048 23.5879 40.1553 21.9784 39.7116C22.0339 39.6007 22.0894 39.4343 22.2004 39.3234C22.7554 38.2696 23.3659 37.2712 24.0874 36.3284C24.8089 35.3855 25.5305 34.4981 26.4185 33.6661C27.3065 32.8342 28.139 32.0577 29.0825 31.3367C29.693 30.893 30.3035 30.5047 30.914 30.1165C32.2461 29.34 33.6336 29.2845 34.0776 29.2845C38.3512 29.2845 36.0756 32.7233 36.0756 32.7787Z" fill="url(#paint2_linear_11_1333)"/>
<path d="M33.689 63.4499C33.911 64.8364 33.689 70.2164 33.4115 70.6601C33.1895 70.6601 32.69 70.7155 31.247 69.8836C30.47 69.4399 29.7485 68.9962 29.027 68.4416C28.0834 67.7205 27.1954 66.9995 26.3629 66.1121C25.5304 65.2247 24.7534 64.3927 24.0319 63.4499C23.3104 62.507 22.6998 61.5087 22.1448 60.4549C21.5898 59.4011 21.1458 58.2918 20.7573 57.1271C20.3688 55.9623 20.0913 54.7976 19.8693 53.5774C19.6473 52.3572 19.5918 51.1371 19.5918 49.8614C19.5918 48.5858 19.7028 47.3656 19.8693 46.1454C20.0913 44.9252 20.3688 43.7605 20.7573 42.5957C20.8128 42.3739 20.9238 42.152 20.9793 41.9302C22.6443 44.1487 24.5869 46.1454 26.1964 48.3639C27.7504 50.4715 29.915 53.9657 30.3035 54.6867C33.0785 59.2347 33.5225 62.1188 33.689 63.4499Z" fill="url(#paint3_linear_11_1333)"/>
<path d="M65.713 49.8614C65.713 52.8564 65.158 55.685 64.1035 58.3472C61.3839 61.2868 43.0686 54.0765 42.9021 54.0211C40.4046 52.9118 32.801 49.584 32.0795 44.3705C31.0804 36.7721 46.3987 31.5585 53.1143 31.3367C53.9468 31.3367 56.3888 31.3921 57.8319 32.5569C62.6605 36.7721 65.713 42.9839 65.713 49.8614Z" fill="url(#paint4_linear_11_1333)"/>
<path d="M53.2808 70.3273C51.2828 71.2702 49.0628 70.6046 49.6733 68.6634C50.7833 64.9474 60.3295 61.1204 62.4385 60.8986C62.716 60.8986 62.827 61.0649 62.716 61.2313C60.496 65.0583 57.2214 68.2197 53.2808 70.3273Z" fill="url(#paint5_linear_11_1333)"/>
<path d="M44.0113 48.863H42.6248V99.2235H44.0113V48.863Z" fill="#83D4DD"/>
<path d="M43.346 49.6949L0.332764 25.1247L1.05428 23.9045L43.346 48.0865L83.7506 24.5701L84.4166 25.7903L43.346 49.6949Z" fill="#83D4DD"/>
<defs>
<linearGradient id="paint0_linear_11_1333" x1="51.1071" y1="70.6888" x2="51.1071" y2="49.0678" gradientUnits="userSpaceOnUse">
<stop stop-color="#3867C8"/>
<stop offset="0.0170877" stop-color="#3665C7"/>
<stop offset="0.2272" stop-color="#1E54B9"/>
<stop offset="0.4509" stop-color="#0D47B0"/>
<stop offset="0.6955" stop-color="#033FAA"/>
<stop offset="1" stop-color="#003DA8"/>
</linearGradient>
<linearGradient id="paint1_linear_11_1333" x1="45.0613" y1="27.3969" x2="45.0613" y2="47.6083" gradientUnits="userSpaceOnUse">
<stop stop-color="#3867C8"/>
<stop offset="0.0770215" stop-color="#2A5CC0"/>
<stop offset="0.2144" stop-color="#174EB5"/>
<stop offset="0.3765" stop-color="#0A44AE"/>
<stop offset="0.5846" stop-color="#023FA9"/>
<stop offset="1" stop-color="#003DA8"/>
</linearGradient>
<linearGradient id="paint2_linear_11_1333" x1="21.9708" y1="34.4876" x2="36.684" y2="34.4876" gradientUnits="userSpaceOnUse">
<stop stop-color="#00C763"/>
<stop offset="1" stop-color="#3C92FD"/>
</linearGradient>
<linearGradient id="paint3_linear_11_1333" x1="19.596" y1="56.2845" x2="33.7927" y2="56.2845" gradientUnits="userSpaceOnUse">
<stop stop-color="#00C763"/>
<stop offset="1" stop-color="#3C92FD"/>
</linearGradient>
<linearGradient id="paint4_linear_11_1333" x1="32.0327" y1="45.1826" x2="65.6885" y2="45.1826" gradientUnits="userSpaceOnUse">
<stop stop-color="#00C763"/>
<stop offset="1" stop-color="#3C92FD"/>
</linearGradient>
<linearGradient id="paint5_linear_11_1333" x1="49.5865" y1="65.7842" x2="62.7552" y2="65.7842" gradientUnits="userSpaceOnUse">
<stop stop-color="#00C763"/>
<stop offset="1" stop-color="#3C92FD"/>
</linearGradient>
</defs>
</svg>
