<svg width="24" height="20" viewBox="0 0 24 20" fill="inherit" className="w-6 h-6 aspect-square py-2 bi bi-person-circle" xmlns="http://www.w3.org/2000/svg">
  <path d="M13.1667 15.6C12.9139 15.6 12.7049 15.5174 12.5396 15.3521C12.3743 15.1868 12.2917 14.9778 12.2917 14.725C12.2917 14.4722 12.3743 14.2632 12.5396 14.0979C12.7049 13.9326 12.9139 13.85 13.1667 13.85H17.8333C18.0861 13.85 18.2951 13.9326 18.4604 14.0979C18.6257 14.2632 18.7083 14.4722 18.7083 14.725C18.7083 14.9778 18.6257 15.1868 18.4604 15.3521C18.2951 15.5174 18.0861 15.6 17.8333 15.6H13.1667ZM6.13749 14.8708C5.96249 14.6958 5.87985 14.4917 5.88957 14.2583C5.8993 14.025 5.98194 13.8208 6.13749 13.6458L8.52916 11.225L6.13749 8.80417C5.96249 8.62917 5.87499 8.425 5.87499 8.19167C5.87499 7.95834 5.96249 7.75417 6.13749 7.57917C6.31249 7.40417 6.51666 7.31667 6.74999 7.31667C6.98333 7.31667 7.18749 7.40417 7.36249 7.57917L10.3083 10.525C10.425 10.6417 10.4979 10.7535 10.5271 10.8604C10.5562 10.9674 10.5708 11.0889 10.5708 11.225C10.5708 11.3611 10.5562 11.4826 10.5271 11.5896C10.4979 11.6965 10.425 11.8083 10.3083 11.925L7.36249 14.8708C7.18749 15.0458 6.98333 15.1333 6.74999 15.1333C6.51666 15.1333 6.31249 15.0458 6.13749 14.8708ZM2.14166 19.5083C1.61666 19.5083 1.15485 19.309 0.756242 18.9104C0.357631 18.5118 0.158325 18.05 0.158325 17.525V2.475C0.158325 1.93056 0.357631 1.46389 0.756242 1.075C1.15485 0.686113 1.61666 0.491669 2.14166 0.491669H21.8583C22.4028 0.491669 22.8694 0.686113 23.2583 1.075C23.6472 1.46389 23.8417 1.93056 23.8417 2.475V17.525C23.8417 18.05 23.6472 18.5118 23.2583 18.9104C22.8694 19.309 22.4028 19.5083 21.8583 19.5083H2.14166ZM2.14166 17.525H21.8583V4.925H2.14166V17.525V17.525Z" />
</svg>
