<svg width="22" height="22" viewBox="0 0 23 23" fill="inherit" className="w-6 h-6 aspect-square py-2 bi bi-person-circle" xmlns="http://www.w3.org/2000/svg">
  <path d="M2.30835 10.125C1.7639 10.125 1.29723 9.93057 0.908346 9.54168C0.519457 9.15279 0.325012 8.68612 0.325012 8.14168V2.30835C0.325012 1.7639 0.519457 1.29723 0.908346 0.908346C1.29723 0.519457 1.7639 0.325012 2.30835 0.325012H8.14168C8.68612 0.325012 9.15279 0.519457 9.54168 0.908346C9.93057 1.29723 10.125 1.7639 10.125 2.30835V8.14168C10.125 8.68612 9.93057 9.15279 9.54168 9.54168C9.15279 9.93057 8.68612 10.125 8.14168 10.125H2.30835ZM2.30835 21.675C1.7639 21.675 1.29723 21.4806 0.908346 21.0917C0.519457 20.7028 0.325012 20.2361 0.325012 19.6917V13.8583C0.325012 13.3139 0.519457 12.8472 0.908346 12.4583C1.29723 12.0695 1.7639 11.875 2.30835 11.875H8.14168C8.68612 11.875 9.15279 12.0695 9.54168 12.4583C9.93057 12.8472 10.125 13.3139 10.125 13.8583V19.6917C10.125 20.2361 9.93057 20.7028 9.54168 21.0917C9.15279 21.4806 8.68612 21.675 8.14168 21.675H2.30835ZM13.8583 10.125C13.3139 10.125 12.8472 9.93057 12.4583 9.54168C12.0695 9.15279 11.875 8.68612 11.875 8.14168V2.30835C11.875 1.7639 12.0695 1.29723 12.4583 0.908346C12.8472 0.519457 13.3139 0.325012 13.8583 0.325012H19.6917C20.2361 0.325012 20.7028 0.519457 21.0917 0.908346C21.4806 1.29723 21.675 1.7639 21.675 2.30835V8.14168C21.675 8.68612 21.4806 9.15279 21.0917 9.54168C20.7028 9.93057 20.2361 10.125 19.6917 10.125H13.8583ZM13.8583 21.675C13.3139 21.675 12.8472 21.4806 12.4583 21.0917C12.0695 20.7028 11.875 20.2361 11.875 19.6917V13.8583C11.875 13.3139 12.0695 12.8472 12.4583 12.4583C12.8472 12.0695 13.3139 11.875 13.8583 11.875H19.6917C20.2361 11.875 20.7028 12.0695 21.0917 12.4583C21.4806 12.8472 21.675 13.3139 21.675 13.8583V19.6917C21.675 20.2361 21.4806 20.7028 21.0917 21.0917C20.7028 21.4806 20.2361 21.675 19.6917 21.675H13.8583ZM2.30835 8.14168H8.14168V2.30835H2.30835V8.14168ZM13.8583 8.14168H19.6917V2.30835H13.8583V8.14168ZM13.8583 19.6917H19.6917V13.8583H13.8583V19.6917ZM2.30835 19.6917H8.14168V13.8583H2.30835V19.6917Z" />
</svg>
