<svg viewBox="0 0 24 18" fill="inherit" className="w-6 h-6 aspect-square py-2 bi bi-person-circle" xmlns="http://www.w3.org/2000/svg">
  <path d="M12 11.5083C11.3195 11.5083 10.7313 11.2604 10.2354 10.7646C9.73959 10.2688 9.49168 9.68057 9.49168 9.00001C9.49168 8.31946 9.73959 7.73126 10.2354 7.23543C10.7313 6.7396 11.3195 6.49168 12 6.49168C12.6806 6.49168 13.2688 6.7396 13.7646 7.23543C14.2604 7.73126 14.5083 8.31946 14.5083 9.00001C14.5083 9.68057 14.2604 10.2688 13.7646 10.7646C13.2688 11.2604 12.6806 11.5083 12 11.5083ZM2.90001 16.7875C2.00557 15.7375 1.30071 14.5514 0.785429 13.2292C0.270151 11.907 0.0125122 10.4972 0.0125122 9.00001C0.0125122 7.50279 0.270151 6.09793 0.785429 4.78543C1.30071 3.47293 2.00557 2.28196 2.90001 1.21251C3.05557 1.03751 3.2646 0.945152 3.5271 0.935429C3.7896 0.925707 4.01807 1.01807 4.21251 1.21251C4.38751 1.38751 4.47987 1.60626 4.4896 1.86876C4.49932 2.13126 4.41668 2.36946 4.24168 2.58335C3.52223 3.47779 2.95348 4.45973 2.53543 5.52918C2.11737 6.59862 1.90835 7.75557 1.90835 9.00001C1.90835 10.225 2.11251 11.3771 2.52085 12.4563C2.92918 13.5354 3.50279 14.5222 4.24168 15.4167C4.41668 15.6306 4.49932 15.8688 4.4896 16.1313C4.47987 16.3938 4.37779 16.6222 4.18335 16.8167C4.00835 16.9917 3.7896 17.0743 3.5271 17.0646C3.2646 17.0549 3.05557 16.9625 2.90001 16.7875ZM6.25418 13.4042C5.78751 12.8014 5.42293 12.1257 5.16043 11.3771C4.89793 10.6285 4.76668 9.83612 4.76668 9.00001C4.76668 8.1639 4.89793 7.37154 5.16043 6.62293C5.42293 5.87432 5.78751 5.19862 6.25418 4.59585C6.40973 4.38196 6.61876 4.27501 6.88126 4.27501C7.14376 4.27501 7.37223 4.37223 7.56668 4.56668C7.74168 4.74168 7.8389 4.96043 7.85835 5.22293C7.87779 5.48543 7.80973 5.73335 7.65418 5.96668C7.34307 6.39446 7.10001 6.86599 6.92501 7.38126C6.75001 7.89654 6.66251 8.43612 6.66251 9.00001C6.66251 9.5639 6.74515 10.1035 6.91043 10.6188C7.07571 11.134 7.3139 11.6056 7.62501 12.0333C7.78057 12.2667 7.85348 12.5146 7.84376 12.7771C7.83404 13.0396 7.73196 13.2681 7.53751 13.4625C7.34307 13.657 7.11946 13.7493 6.86668 13.7396C6.6139 13.7299 6.40973 13.6181 6.25418 13.4042ZM16.4625 13.4625C16.2875 13.2875 16.1854 13.0639 16.1563 12.7917C16.1271 12.5195 16.1903 12.2667 16.3458 12.0333C16.657 11.6056 16.9 11.134 17.075 10.6188C17.25 10.1035 17.3375 9.5639 17.3375 9.00001C17.3375 8.43612 17.2549 7.89654 17.0896 7.38126C16.9243 6.86599 16.6861 6.39446 16.375 5.96668C16.2195 5.73335 16.1465 5.48543 16.1563 5.22293C16.166 4.96043 16.2681 4.73196 16.4625 4.53751C16.657 4.34307 16.8806 4.25071 17.1333 4.26043C17.3861 4.27015 17.5903 4.38196 17.7458 4.59585C18.2125 5.19862 18.5771 5.87432 18.8396 6.62293C19.1021 7.37154 19.2333 8.1639 19.2333 9.00001C19.2333 9.83612 19.1021 10.6236 18.8396 11.3625C18.5771 12.1014 18.2125 12.782 17.7458 13.4042C17.5903 13.6181 17.3861 13.7299 17.1333 13.7396C16.8806 13.7493 16.657 13.657 16.4625 13.4625V13.4625ZM19.8167 16.8167C19.6417 16.6417 19.5445 16.4181 19.525 16.1458C19.5056 15.8736 19.5833 15.6306 19.7583 15.4167C20.4778 14.5222 21.0465 13.5354 21.4646 12.4563C21.8826 11.3771 22.0917 10.225 22.0917 9.00001C22.0917 7.77501 21.8875 6.62293 21.4792 5.54376C21.0708 4.4646 20.4972 3.47779 19.7583 2.58335C19.5833 2.36946 19.5007 2.13126 19.5104 1.86876C19.5201 1.60626 19.6222 1.37779 19.8167 1.18335C19.9917 1.00835 20.2104 0.925707 20.4729 0.935429C20.7354 0.945152 20.9445 1.03751 21.1 1.21251C21.9945 2.26251 22.6993 3.45348 23.2146 4.78543C23.7299 6.11737 23.9875 7.52224 23.9875 9.00001C23.9875 10.4778 23.7299 11.8827 23.2146 13.2146C22.6993 14.5465 21.9945 15.7375 21.1 16.7875C20.9445 16.9625 20.7354 17.0549 20.4729 17.0646C20.2104 17.0743 19.9917 16.9917 19.8167 16.8167Z" fill="#E9E9E9"/>
</svg>