<svg width="24" height="24" viewBox="0 0 24 24" fill="none" xmlns="http://www.w3.org/2000/svg">
<path fill-rule="evenodd" clip-rule="evenodd" d="M20.6683 13.1433C20.715 12.77 20.75 12.3966 20.75 12C20.75 11.6033 20.715 11.23 20.6683 10.8566L23.13 8.93165C23.3517 8.75665 23.41 8.44165 23.27 8.18498L20.9367 4.14831C20.7967 3.89165 20.4817 3.79831 20.225 3.89165L17.32 5.05831C16.7133 4.59165 16.06 4.20665 15.3483 3.91498L14.905 0.823313C14.87 0.543313 14.625 0.333313 14.3333 0.333313H9.66666C9.375 0.333313 9.13 0.543313 9.095 0.823313L8.65166 3.91498C7.94 4.20665 7.28666 4.60331 6.68 5.05831L3.775 3.89165C3.50666 3.78665 3.20333 3.89165 3.06333 4.14831L0.729996 8.18498C0.578329 8.44165 0.648329 8.75665 0.869996 8.93165L3.33166 10.8566C3.285 11.23 3.25 11.615 3.25 12C3.25 12.385 3.285 12.77 3.33166 13.1433L0.869996 15.0683C0.648329 15.2433 0.589996 15.5583 0.729996 15.815L3.06333 19.8516C3.20333 20.1083 3.51833 20.2016 3.775 20.1083L6.68 18.9416C7.28666 19.4083 7.94 19.7933 8.65166 20.085L9.095 23.1766C9.13 23.4566 9.375 23.6666 9.66666 23.6666H14.3333C14.625 23.6666 14.87 23.4566 14.905 23.1766L15.3483 20.085C16.06 19.7933 16.7133 19.3966 17.32 18.9416L20.225 20.1083C20.4933 20.2133 20.7967 20.1083 20.9367 19.8516L23.27 15.815C23.41 15.5583 23.3517 15.2433 23.13 15.0683L20.6683 13.1433V13.1433ZM12 16.0833C9.74833 16.0833 7.91666 14.2516 7.91666 12C7.91666 9.74831 9.74833 7.91665 12 7.91665C14.2517 7.91665 16.0833 9.74831 16.0833 12C16.0833 14.2516 14.2517 16.0833 12 16.0833V16.0833Z" fill="#E9E9E9"/>
</svg>
