<svg width="24" height="20" viewBox="0 0 24 20" fill="inherit" className="w-6 h-6 aspect-square py-2 bi bi-person-circle" xmlns="http://www.w3.org/2000/svg">
<path d="M17.4833 11.4C17.2889 11.1861 17.1917 10.9479 17.1917 10.6854C17.1917 10.4229 17.2889 10.1944 17.4833 9.99999L20.1958 7.28749H12.1458C11.8736 7.28749 11.6403 7.19513 11.4458 7.01041C11.2514 6.82569 11.1542 6.58749 11.1542 6.29583C11.1542 6.00416 11.2514 5.76597 11.4458 5.58124C11.6403 5.39652 11.8736 5.30416 12.1458 5.30416H20.1958L17.4542 2.56249C17.2597 2.36805 17.1674 2.13958 17.1771 1.87708C17.1868 1.61458 17.2889 1.3861 17.4833 1.19166C17.6972 0.997216 17.9354 0.899994 18.1979 0.899994C18.4604 0.899994 18.6889 0.997216 18.8833 1.19166L23.2875 5.59583C23.4042 5.71249 23.4819 5.8243 23.5208 5.93124C23.5597 6.03819 23.5792 6.15972 23.5792 6.29583C23.5792 6.43194 23.5597 6.55347 23.5208 6.66041C23.4819 6.76735 23.4042 6.87916 23.2875 6.99583L18.8542 11.4292C18.6597 11.6236 18.4361 11.716 18.1833 11.7062C17.9306 11.6965 17.6972 11.5944 17.4833 11.4V11.4ZM5.11667 18.8083L0.712504 14.4042C0.595837 14.2875 0.51806 14.1757 0.479171 14.0687C0.440282 13.9618 0.420837 13.8403 0.420837 13.7042C0.420837 13.568 0.440282 13.4465 0.479171 13.3396C0.51806 13.2326 0.595837 13.1208 0.712504 13.0042L5.14584 8.57083C5.34028 8.37638 5.56389 8.28402 5.81667 8.29374C6.06945 8.30347 6.30278 8.40555 6.51667 8.59999C6.71112 8.79444 6.80834 9.02777 6.80834 9.29999C6.80834 9.57222 6.71112 9.80555 6.51667 9.99999L3.80417 12.7125H11.8542C12.1264 12.7125 12.3597 12.8049 12.5542 12.9896C12.7486 13.1743 12.8458 13.4125 12.8458 13.7042C12.8458 13.9958 12.7486 14.234 12.5542 14.4187C12.3597 14.6035 12.1264 14.6958 11.8542 14.6958H3.80417L6.54584 17.4375C6.74028 17.6319 6.83264 17.8604 6.82292 18.1229C6.8132 18.3854 6.71112 18.6139 6.51667 18.8083C6.30278 19.0028 6.06459 19.1 5.80209 19.1C5.53959 19.1 5.31111 19.0028 5.11667 18.8083V18.8083Z" />
</svg>
