<svg xmlns="http://www.w3.org/2000/svg" xml:space="preserve" viewBox="0 0 240 240"><path fill="#FFF" d="M0 0h240v240H0z" opacity="0"/><path fill="#83D4DD" d="m219.1 182.6-96.9-58L20.9 181l-1.6-2.9 103-57.3 98.5 58.9zM120.6 2h3.3v115.3h-3.3z"/><path fill="#83D4DD" d="M122.3 239.9 18.4 180.5V57.9L122.3.1l99.3 59.4v122.6l-99.3 57.8zM21.7 178.6l100.5 57.5 96-55.9V61.4l-96-57.5L21.7 59.8v118.8z"/><linearGradient id="a" x1="140.9035" x2="140.9035" y1="72.5246" y2="124.375" gradientTransform="matrix(1 0 0 -1 0 242.11)" gradientUnits="userSpaceOnUse"><stop offset="0" stop-color="#3867c8"/><stop offset=".02" stop-color="#3565c6"/><stop offset=".23" stop-color="#1e53b9"/><stop offset=".45" stop-color="#0d46af"/><stop offset=".7" stop-color="#033fa9"/><stop offset="1" stop-color="#003da8"/></linearGradient><path fill="url(#a)" d="M112.9 150.2c3 11.2 13.9 19.7 19.4 19.4.2 0 20.8-3.9 32.1-22.7 8.8-14.7 5.8-28.8-6.1-29.1-4.4.2-51.2 11.1-45.4 32.4"/><linearGradient id="b" x1="126.4145" x2="126.4145" y1="176.345" y2="127.8624" gradientTransform="matrix(1 0 0 -1 0 242.11)" gradientUnits="userSpaceOnUse"><stop offset="0" stop-color="#3867c8"/><stop offset=".08" stop-color="#295cbf"/><stop offset=".21" stop-color="#174eb5"/><stop offset=".38" stop-color="#0944ad"/><stop offset=".58" stop-color="#023ea9"/><stop offset="1" stop-color="#003da8"/></linearGradient><path fill="url(#b)" d="M157.1 78.3c-9.1-7.8-21-12.5-34-12.5-7.6 0-14.8 1.6-21.3 4.5-1.2.5-2.3 1-3.3 1.6-.7.4-1.5.8-2.2 1.2l.2.1c-2.2 1.5-4 3.2-5.5 5.2-15 19.9 35.4 34.3 62.3 34.4 12.4 8.9 15.9-25.1 3.8-34.5z"/><linearGradient id="c" x1="71.08" x2="106.3411" y1="159.3566" y2="159.3566" gradientTransform="matrix(1 0 0 -1 0 242.11)" gradientUnits="userSpaceOnUse"><stop offset="0" stop-color="#00c763"/><stop offset="1" stop-color="#3c92fd"/></linearGradient><path fill="url(#c)" d="M104.9 78.7c-6.9 10.4-30 17.7-33.8 16.6v-.1c.2-.3.3-.6.5-.9 1.3-2.5 2.8-4.9 4.5-7.2 1.7-2.3 3.5-4.4 5.5-6.4s4.2-3.8 6.4-5.5c1.4-1 2.9-2 4.4-2.9 3.2-1.9 6.5-2 7.6-2 10.3 0 4.9 8.3 4.9 8.4"/><linearGradient id="d" x1="65.4" x2="99.4111" y1="107.0684" y2="107.0684" gradientTransform="matrix(1 0 0 -1 0 242.11)" gradientUnits="userSpaceOnUse"><stop offset="0" stop-color="#00c763"/><stop offset="1" stop-color="#3c92fd"/></linearGradient><path fill="url(#d)" d="M99.2 152.2c.5 3.3 0 16.2-.7 17.3-.6 0-1.8.1-5.2-1.8-1.8-1-3.6-2.2-5.3-3.4-2.3-1.7-4.4-3.5-6.4-5.5s-3.9-4.1-5.5-6.4-3.2-4.7-4.5-7.2c-1.3-2.5-2.4-5.2-3.3-7.9-.9-2.7-1.6-5.6-2.1-8.5-.5-2.9-.7-5.9-.7-9s.2-6 .7-9c.5-2.9 1.2-5.8 2.1-8.5.2-.6.4-1.1.6-1.7 4 5.3 8.6 10.1 12.5 15.4 3.7 5.1 8.9 13.4 9.9 15.2 6.4 11 7.4 17.8 7.9 21"/><linearGradient id="e" x1="95.1904" x2="175.85" y1="133.6953" y2="133.6953" gradientTransform="matrix(1 0 0 -1 0 242.11)" gradientUnits="userSpaceOnUse"><stop offset="0" stop-color="#00c763"/><stop offset="1" stop-color="#3c92fd"/></linearGradient><path fill="url(#e)" d="M175.8 119.7c0 7.2-1.4 14-3.8 20.3-6.5 7-50.4-10.2-50.8-10.4-6-2.6-24.3-10.6-25.9-23.2-2.4-18.1 34.3-30.7 50.4-31.2 1.9 0 7.8.1 11.2 2.9 11.6 10.1 18.9 25 18.9 41.6"/><linearGradient id="f" x1="137.2594" x2="168.8204" y1="84.2932" y2="84.2932" gradientTransform="matrix(1 0 0 -1 0 242.11)" gradientUnits="userSpaceOnUse"><stop offset="0" stop-color="#00c763"/><stop offset="1" stop-color="#3c92fd"/></linearGradient><path fill="url(#f)" d="M146.2 168.7c-4.8 2.2-10.1.6-8.7-4 2.6-8.9 25.6-18.1 30.6-18.6.6-.1.9.4.6.9-5.3 9.1-13.1 16.7-22.5 21.7"/><path fill="#83D4DD" d="M120.6 117.3h3.3V238h-3.3z"/><path fill="#83D4DD" d="M122.3 119.2 19.2 60.3l1.7-2.9 101.4 58L219.1 59l1.7 2.9z"/></svg>