<svg xmlns="http://www.w3.org/2000/svg" xml:space="preserve" viewBox="0 0 992.1 222.7"><path fill="#0E3CA5" d="M340.5 73.8h-32.2V52.3H396v21.5h-32.2v84.4h-23.3V73.8zm48.1 44.4v-.3c0-23.2 16.5-42.2 40.1-42.2 27.1 0 39.5 21 39.5 44 0 1.8-.1 3.9-.3 6.1h-56.5c2.3 10.4 9.5 15.9 19.8 15.9 7.7 0 13.3-2.4 19.7-8.3l13.2 11.6c-7.6 9.4-18.5 15.1-33.1 15.1-24.4 0-42.4-17.1-42.4-41.9zm57.2-6.8c-1.4-10.3-7.4-17.2-17.1-17.2s-15.7 6.8-17.6 17.2h34.7zm36.4-34.2h23v16.3c4.7-11.2 12.3-18.5 25.9-17.9v24.1h-1.2c-15.3 0-24.7 9.2-24.7 28.6v30h-23V77.2zm60.3 0h23v16.3c4.7-11.2 12.3-18.5 25.9-17.9v24.1h-1.2c-15.3 0-24.7 9.2-24.7 28.6v30h-23V77.2zm51.6 57.8v-.3c0-17.7 13.5-25.9 32.7-25.9 8.2 0 14.1 1.4 19.8 3.3v-1.4c0-9.5-5.9-14.8-17.4-14.8-8.8 0-15 1.7-22.4 4.4L601 82.8c8.9-3.9 17.7-6.5 31.5-6.5 12.6 0 21.6 3.3 27.4 9.1 6 6.1 8.8 15 8.8 25.9v47.1h-22.2v-8.8c-5.6 6.2-13.3 10.3-24.5 10.3-15.4-.1-27.9-8.9-27.9-24.9zm52.8-5.3v-4.1c-3.9-1.8-9.1-3-14.7-3-9.8 0-15.9 3.9-15.9 11.2v.3c0 6.2 5.2 9.8 12.6 9.8 10.7 0 18-5.9 18-14.2zM688.2 80h11.7v20.4c5.8-13 17.1-22.4 31.9-21.8v12.6h-.9c-17.1 0-31 12.3-31 35.9v31.2h-11.7V80zm58.6-29.9h13.3V63h-13.3V50.1zm.7 29.9h11.7v78.2h-11.7V80zm34.5 48.6V80h11.7v45.7c0 14.5 7.9 23.6 21.6 23.6s23.5-9.8 23.5-24.5V80h11.5v78.2h-11.5v-13.6c-5.3 8.5-13.3 15.3-26.8 15.3-18.9 0-30-12.7-30-31.3zM873.4 80h11.7v13.2c5.2-7.7 12.1-14.8 25.3-14.8s20.9 6.8 25.1 15.6c5.6-8.6 13.9-15.6 27.5-15.6 18 0 29.1 12.1 29.1 31.5v48.4h-11.7v-45.7c0-15.1-7.6-23.6-20.3-23.6-11.8 0-21.6 8.8-21.6 24.2v45.1H927v-46c0-14.7-7.7-23.3-20.1-23.3s-21.8 10.3-21.8 24.7v44.6h-11.7V80zM130.5 221.9l-129-72.1c-1-.5-1.6-1.6-1.6-2.7v-4.2l133.6-68.7 133.6 68.7v4.2c0 1.1-.6 2.1-1.6 2.7l-129 72.1c-1.8 1.1-4.1 1.1-6 0z"/><path fill="#83D4DD" d="M130.5 215.9 0 142.9l130.4-73c2-1.1 4.4-1.1 6.3 0l130.4 73-130.5 73c-1.9 1.1-4.2 1.1-6.1 0z"/><path fill="#0E3CA5" d="M133.6 172.3 81 142.9l52.5-29.4h.1l52.5 29.4-52.5 29.4z" opacity=".3"/><path fill="#FFF" d="m133.7 155-67.1-38.4V37.4L133.8 0 198 38.4v79.2L133.7 155zm-64.9-39.6 65 37.2 62-36.1V39.6L133.7 2.5 68.8 38.6v76.8z"/><path fill="#FFF" d="m196.3 117.9-62.6-37.4-65.5 36.4-1-1.8L133.8 78l63.6 38.1zM132.7 1.2h2.1v74.5h-2.1z"/><linearGradient id="a" x1="147.4096" x2="147.4096" y1="111.4128" y2="146.75" gradientTransform="matrix(1 0 0 -1 0 224)" gradientUnits="userSpaceOnUse"><stop offset="0" stop-color="#3867c8"/><stop offset=".02" stop-color="#3565c6"/><stop offset=".23" stop-color="#1e53b9"/><stop offset=".45" stop-color="#0d46af"/><stop offset=".7" stop-color="#033fa9"/><stop offset="1" stop-color="#003da8"/></linearGradient><path fill="url(#a)" d="M128.3 99.4c2.1 7.6 9.5 13.4 13.2 13.2.1 0 14.2-2.6 21.9-15.5 6-10 3.9-19.7-4.2-19.9-2.9.3-34.8 7.6-30.9 22.2"/><linearGradient id="b" x1="137.5458" x2="137.5458" y1="182.17" y2="149.1252" gradientTransform="matrix(1 0 0 -1 0 224)" gradientUnits="userSpaceOnUse"><stop offset="0" stop-color="#3867c8"/><stop offset=".08" stop-color="#295cbf"/><stop offset=".21" stop-color="#174eb5"/><stop offset=".38" stop-color="#0944ad"/><stop offset=".58" stop-color="#023ea9"/><stop offset="1" stop-color="#003da8"/></linearGradient><path fill="url(#b)" d="M158.4 50.3c-6.2-5.3-14.3-8.5-23.1-8.5-5.2 0-10.1 1.1-14.5 3.1-.8.3-1.6.7-2.3 1.1-.5.3-1 .5-1.5.8h.1c-1.5 1-2.7 2.2-3.8 3.6-10.2 13.5 24.1 23.4 42.5 23.4 8.5 6.1 10.9-17 2.6-23.5z"/><linearGradient id="c" x1="99.82" x2="123.8465" y1="170.5799" y2="170.5799" gradientTransform="matrix(1 0 0 -1 0 224)" gradientUnits="userSpaceOnUse"><stop offset="0" stop-color="#00c763"/><stop offset="1" stop-color="#3c92fd"/></linearGradient><path fill="url(#c)" d="M122.9 50.6c-4.7 7.1-20.4 12.1-23 11.3l.3-.6c.9-1.7 1.9-3.4 3.1-4.9s2.4-3 3.8-4.4c1.4-1.4 2.8-2.6 4.4-3.8 1-.7 2-1.4 3-2 2.2-1.3 4.5-1.4 5.2-1.4 6.9.2 3.2 5.8 3.2 5.8"/><linearGradient id="d" x1="95.95" x2="119.128" y1="134.9469" y2="134.9469" gradientTransform="matrix(1 0 0 -1 0 224)" gradientUnits="userSpaceOnUse"><stop offset="0" stop-color="#00c763"/><stop offset="1" stop-color="#3c92fd"/></linearGradient><path fill="url(#d)" d="M119 100.8c.3 2.2 0 11-.5 11.8-.4 0-1.2.1-3.6-1.3-1.2-.7-2.4-1.5-3.6-2.3-1.6-1.1-3-2.4-4.4-3.8-1.4-1.4-2.6-2.8-3.8-4.4s-2.2-3.2-3.1-4.9c-.9-1.7-1.7-3.5-2.3-5.4-.6-1.9-1.1-3.8-1.4-5.8-.3-2-.5-4-.5-6.1s.2-4.1.5-6.1.8-3.9 1.4-5.8c.1-.4.3-.8.4-1.1 2.7 3.6 5.8 6.9 8.5 10.5 2.5 3.5 6 9.1 6.8 10.3 4.6 7.5 5.3 12.1 5.6 14.4"/><linearGradient id="e" x1="116.2549" x2="171.23" y1="153.0949" y2="153.0949" gradientTransform="matrix(1 0 0 -1 0 224)" gradientUnits="userSpaceOnUse"><stop offset="0" stop-color="#00c763"/><stop offset="1" stop-color="#3c92fd"/></linearGradient><path fill="url(#e)" d="M171.2 78.6c0 4.9-.9 9.6-2.6 13.8-4.4 4.8-34.3-7-34.6-7.1-4.1-1.8-16.5-7.2-17.7-15.8-1.6-12.3 23.4-20.9 34.4-21.2 1.3 0 5.3.1 7.7 2 7.8 6.8 12.8 17 12.8 28.3"/><linearGradient id="f" x1="144.9278" x2="166.4453" y1="119.4252" y2="119.4252" gradientTransform="matrix(1 0 0 -1 0 224)" gradientUnits="userSpaceOnUse"><stop offset="0" stop-color="#00c763"/><stop offset="1" stop-color="#3c92fd"/></linearGradient><path fill="url(#f)" d="M151 112c-3.3 1.5-6.9.4-5.9-2.8 1.8-6.1 17.4-12.3 20.9-12.7.4 0 .6.2.4.6-3.6 6.3-9 11.5-15.4 14.9"/><path fill="#83D4DD" d="M133.8 0 66.6 37.4v68.3l2.1-1.2V38.6l1.1-.6 5.1-2.8 1.9-1 55.8-31v38.9c.7 0 1.5-.1 2.1-.1V3.1l60 35.9 1 .6v63.3l2.1 1.2V38.4L133.8 0z"/><path fill="#FFF" d="M132.8 75.5h2.1v77.6h-2.1z"/><path fill="#FFF" d="M133.8 76.7 67.6 38.9l1.1-1.9 65.1 37.3L196 38.1l1.1 1.8z"/><path fill="#83D4DD" d="m197.1 39.9-1.1-1.8-31.9 18.6c.4.5.8 1.1 1.2 1.8l31.8-18.6zM68.7 37l-1.1 1.8 34.2 19.5 1.2-1.8L68.7 37z"/></svg>