<svg xmlns="http://www.w3.org/2000/svg" xml:space="preserve" viewBox="0 0 268 268"><path d="M0 0h268v268H0z" opacity="0"/><path fill="#FFF" d="M130.9 244.6 2 172.4c-1-.5-1.6-1.6-1.6-2.7v-4.2L134 96.8l133.6 68.7v4.2c0 1.1-.6 2.1-1.6 2.7l-129 72.1c-1.9 1.1-4.2 1.1-6.1.1z"/><path fill="#6B6B6B" d="M130.9 238.5.4 165.5l130.4-73c2-1.1 4.4-1.1 6.3 0l130.4 73-130.5 73c-1.9 1.1-4.2 1.1-6.1 0z"/><path fill="#222" d="m134 194.9-52.5-29.4 52.5-29.4h.1l52.5 29.4-52.6 29.4z" opacity=".3"/><path fill="#C6C6C6" d="M134.2 177.6 67 139.3V60l67.1-37.4L198.3 61v79.2l-64.1 37.4zm-65-39.6 65 37.2 62-36.1V62.2l-62.1-37.1-64.9 36.2V138z"/><path fill="#C6C6C6" d="m196.7 140.6-62.6-37.5-65.5 36.5-1-1.9 66.6-37 63.6 38zM133.1 23.9h2.1v74.5h-2.1z"/><path fill="#999" d="M128.7 122c2.1 7.6 9.5 13.4 13.2 13.2.1 0 14.2-2.6 21.9-15.5 6-10 3.9-19.7-4.2-19.9-2.9.3-34.8 7.7-30.9 22.2m30.1-49c-6.2-5.3-14.3-8.5-23.1-8.5-5.2 0-10.1 1.1-14.5 3.1-.8.3-1.6.7-2.3 1.1-.5.3-1 .5-1.5.8h.1c-1.5 1-2.7 2.2-3.8 3.6-10.2 13.5 24.1 23.4 42.5 23.4 8.5 6.1 10.9-17.1 2.6-23.5z"/><path fill="#FFF" d="M123.3 73.3c-4.7 7.1-20.4 12.1-23 11.3l.3-.6c.9-1.7 1.9-3.4 3.1-4.9s2.4-3 3.8-4.4c1.4-1.4 2.8-2.6 4.4-3.8 1-.7 2-1.4 3-2 2.2-1.3 4.5-1.4 5.2-1.4 6.9.1 3.2 5.7 3.2 5.8m-3.9 50.1c.3 2.2 0 11-.5 11.8-.4 0-1.2.1-3.6-1.3-1.2-.7-2.4-1.5-3.6-2.3-1.6-1.1-3-2.4-4.4-3.8-1.4-1.4-2.6-2.8-3.8-4.4s-2.2-3.2-3.1-4.9c-.9-1.7-1.7-3.5-2.3-5.4-.6-1.9-1.1-3.8-1.4-5.8-.3-2-.5-4-.5-6.1s.2-4.1.5-6.1.8-3.9 1.4-5.8c.1-.4.3-.8.4-1.1 2.7 3.6 5.8 6.9 8.5 10.5 2.5 3.5 6 9.1 6.8 10.3 4.6 7.6 5.3 12.2 5.6 14.4m52.2-22.2c0 4.9-.9 9.6-2.6 13.8-4.4 4.8-34.3-7-34.6-7.1-4.1-1.8-16.5-7.2-17.7-15.8-1.6-12.3 23.4-20.9 34.4-21.2 1.3 0 5.3.1 7.7 2 7.9 6.9 12.8 17 12.8 28.3m-20.2 33.4c-3.3 1.5-6.9.4-5.9-2.8 1.8-6.1 17.4-12.3 20.9-12.7.4 0 .6.2.4.6-3.6 6.3-8.9 11.5-15.4 14.9"/><path fill="#C6C6C6" d="M133.2 98.1h2.1v77.6h-2.1z"/><path fill="#C6C6C6" d="M134.2 99.4 68 61.5l1.1-1.8 65.1 37.2 62.2-36.2 1.1 1.8z"/></svg>